<mxfile host="app.diagrams.net" modified="2023-05-17T14:49:00.595Z" agent="Mozilla/5.0 (Windows NT 10.0; Win64; x64) AppleWebKit/537.36 (KHTML, like Gecko) Chrome/113.0.0.0 Safari/537.36" etag="ZhNHa35x7PeBk0l1dzjD" version="21.3.2" type="github">
  <diagram name="LMS-1048" id="_D9xqmZomV4mIIhaFsrd">
    <mxGraphModel dx="819" dy="432" grid="1" gridSize="10" guides="1" tooltips="1" connect="1" arrows="1" fold="1" page="1" pageScale="1" pageWidth="827" pageHeight="1169" math="0" shadow="0">
      <root>
        <mxCell id="0" />
        <mxCell id="1" parent="0" />
        <mxCell id="MxytkL_6uwHDZ64c6ipp-3" value="" style="edgeStyle=orthogonalEdgeStyle;rounded=0;orthogonalLoop=1;jettySize=auto;html=1;labelBackgroundColor=none;fontColor=default;" parent="1" source="MxytkL_6uwHDZ64c6ipp-1" target="MxytkL_6uwHDZ64c6ipp-2" edge="1">
          <mxGeometry relative="1" as="geometry" />
        </mxCell>
        <mxCell id="MxytkL_6uwHDZ64c6ipp-1" value="Atualizar planejamento na tabela ClassModule para cada classModuleId" style="rounded=0;whiteSpace=wrap;html=1;labelBackgroundColor=none;" parent="1" vertex="1">
          <mxGeometry x="80" y="130" width="150" height="60" as="geometry" />
        </mxCell>
        <mxCell id="MxytkL_6uwHDZ64c6ipp-2" value="" style="rounded=0;whiteSpace=wrap;html=1;labelBackgroundColor=none;" parent="1" vertex="1">
          <mxGeometry x="95" y="240" width="120" height="60" as="geometry" />
        </mxCell>
        <mxCell id="MxytkL_6uwHDZ64c6ipp-7" value="&lt;br&gt;&amp;nbsp;[LMS-1048] - Atualizar módulo de uma turma em andamento" style="text;html=1;align=center;verticalAlign=middle;resizable=0;points=[];autosize=1;strokeColor=none;fillColor=none;fontStyle=1;labelBackgroundColor=none;" parent="1" vertex="1">
          <mxGeometry x="20" width="370" height="40" as="geometry" />
        </mxCell>
        <mxCell id="H0ywXH4Dreiq-4G9I1Nh-1" value="&lt;div&gt;{&amp;nbsp;&lt;/div&gt;&lt;div&gt;&amp;nbsp; &amp;nbsp;&quot;moduleTemplateId&quot;: &quot;string&quot;,&lt;/div&gt;&lt;div&gt;&amp;nbsp; &amp;nbsp;&quot;moduleTemplateCode&quot;: &quot;string&quot;,&lt;/div&gt;&lt;div&gt;&amp;nbsp; &amp;nbsp;&quot;itemsToUpdate&quot;: [&quot;string&quot;],&lt;/div&gt;&lt;div&gt;&amp;nbsp; &amp;nbsp;&quot;classModuleIds&quot;: [&quot;string&quot;]&lt;/div&gt;&lt;div&gt;&amp;nbsp; }&lt;/div&gt;" style="text;html=1;strokeColor=none;fillColor=none;align=left;verticalAlign=middle;whiteSpace=wrap;rounded=0;labelBackgroundColor=none;" parent="1" vertex="1">
          <mxGeometry x="510" y="50" width="210" height="90" as="geometry" />
        </mxCell>
        <mxCell id="tG9Uo5ou-vZxKWd6S4af-1" value="&lt;span style=&quot;background-color: initial;&quot;&gt;*itemsToUpdate&lt;/span&gt;&lt;br&gt;&lt;p&gt;[“planning”, “topics”, “exercises”, “rubrics” ]&lt;/p&gt;" style="text;html=1;strokeColor=none;fillColor=none;align=left;verticalAlign=middle;whiteSpace=wrap;rounded=0;labelBackgroundColor=none;" vertex="1" parent="1">
          <mxGeometry x="710" y="70" width="260" height="50" as="geometry" />
        </mxCell>
      </root>
    </mxGraphModel>
  </diagram>
</mxfile>
